<?xml version="1.0" encoding="UTF-8"?>
<svg width="729px" height="350px" viewBox="0 0 729 350" version="1.1" xmlns="http://www.w3.org/2000/svg" xmlns:xlink="http://www.w3.org/1999/xlink">
    <!-- Generator: Sketch 53.2 (72643) - https://sketchapp.com -->
    <title>sprd-logo</title>
    <desc>Created with Sketch.</desc>
    <defs>
        <linearGradient x1="0.00127659574%" y1="50.1448363%" x2="100.041809%" y2="50.1448363%" id="linearGradient-1">
            <stop stop-color="#D2DE26" offset="0%"></stop>
            <stop stop-color="#BFD82C" offset="15.23%"></stop>
            <stop stop-color="#95CA39" offset="52.79%"></stop>
            <stop stop-color="#7CC141" offset="82.33%"></stop>
            <stop stop-color="#72BE44" offset="100%"></stop>
        </linearGradient>
        <linearGradient x1="-0.053654485%" y1="49.89131%" x2="100%" y2="49.89131%" id="linearGradient-2">
            <stop stop-color="#72BE44" offset="0%"></stop>
            <stop stop-color="#8BC73B" offset="14.62%"></stop>
            <stop stop-color="#B1D32D" offset="39.94%"></stop>
            <stop stop-color="#CCDC22" offset="63.42%"></stop>
            <stop stop-color="#DCE21C" offset="84.17%"></stop>
            <stop stop-color="#E2E41A" offset="100%"></stop>
        </linearGradient>
    </defs>
    <g id="Page-1" stroke="none" stroke-width="1" fill="none" fill-rule="evenodd">
        <g id="sprd-logo" fill-rule="nonzero">
            <g id="Group" transform="translate(0.000000, 275.549296)" fill="#002A00">
                <path d="M0.205633803,61.8957746 L11.1042254,48.7352113 C18.0957746,54.2873239 25.9098592,57.1661972 34.1352113,57.1661972 C39.4816901,57.1661972 42.1549296,55.315493 42.1549296,52.2309859 L42.1549296,52.0253521 C42.1549296,49.1464789 39.8929577,47.5014085 30.228169,45.2394366 C15.2169014,41.743662 3.49577465,37.6309859 3.49577465,23.0309859 L3.49577465,22.8253521 C3.49577465,9.66478873 13.9830986,0.205633803 30.8450704,0.205633803 C42.9774648,0.205633803 52.2309859,3.49577465 60.0450704,9.66478873 L50.1746479,23.4422535 C43.8,18.9183099 36.6028169,16.4507042 30.4338028,16.4507042 C25.7042254,16.4507042 23.4422535,18.5070423 23.4422535,20.9746479 L23.4422535,21.1802817 C23.4422535,24.4704225 25.9098592,25.9098592 35.7802817,27.9661972 C52.0253521,31.4619718 62.1014085,36.8084507 62.1014085,49.9690141 L62.1014085,50.1746479 C62.1014085,64.5690141 50.5859155,73.2056338 33.5183099,73.2056338 C20.7690141,73.8225352 8.84225352,69.7098592 0.205633803,61.8957746 Z" id="Path"></path>
                <path d="M71.5605634,1.64507042 L101.994366,1.64507042 C119.884507,1.64507042 131.4,10.8985915 131.4,26.5267606 L131.4,26.7323944 C131.4,43.3887324 118.650704,52.2309859 100.966197,52.2309859 L91.3014085,52.2309859 L91.3014085,72.3830986 L71.7661972,72.3830986 L71.7661972,1.64507042 L71.5605634,1.64507042 Z M100.349296,36.8084507 C107.340845,36.8084507 111.659155,33.1070423 111.659155,27.5549296 L111.659155,27.3492958 C111.659155,21.1802817 107.340845,18.0957746 100.349296,18.0957746 L91.0957746,18.0957746 L91.0957746,36.8084507 L100.349296,36.8084507 Z" id="Shape"></path>
                <path d="M139.625352,1.64507042 L173.143662,1.64507042 C184.042254,1.64507042 191.44507,4.52394366 196.174648,9.25352113 C200.287324,13.3661972 202.549296,18.7126761 202.549296,25.7042254 L202.549296,25.9098592 C202.549296,36.8084507 196.791549,44.0056338 187.949296,47.7070423 L204.811268,72.3830986 L182.191549,72.3830986 L168.002817,50.9971831 L167.797183,50.9971831 L159.366197,50.9971831 L159.366197,72.3830986 L139.830986,72.3830986 L139.830986,1.64507042 L139.625352,1.64507042 Z M172.115493,35.7802817 C178.695775,35.7802817 182.602817,32.4901408 182.602817,27.3492958 L182.602817,27.143662 C182.602817,21.5915493 178.490141,18.7126761 171.909859,18.7126761 L159.160563,18.7126761 L159.160563,35.7802817 L172.115493,35.7802817 L172.115493,35.7802817 Z" id="Shape"></path>
                <path d="M212.419718,1.64507042 L239.769014,1.64507042 C265.061972,1.64507042 279.661972,16.2450704 279.661972,36.6028169 L279.661972,36.8084507 C279.661972,57.1661972 264.856338,72.3830986 239.357746,72.3830986 L212.419718,72.3830986 L212.419718,1.64507042 L212.419718,1.64507042 Z M239.974648,55.1098592 C251.695775,55.1098592 259.509859,48.7352113 259.509859,37.2197183 L259.509859,37.0140845 C259.509859,25.7042254 251.695775,19.1239437 239.974648,19.1239437 L231.95493,19.1239437 L231.95493,55.1098592 L239.974648,55.1098592 Z" id="Shape"></path>
                <polygon id="Path" points="284.802817 52.8478873 304.749296 52.8478873 304.749296 72.5887324 284.802817 72.5887324"></polygon>
                <path d="M315.442254,1.64507042 L342.791549,1.64507042 C368.084507,1.64507042 382.684507,16.2450704 382.684507,36.6028169 L382.684507,36.8084507 C382.684507,57.1661972 367.878873,72.3830986 342.380282,72.3830986 L315.442254,72.3830986 L315.442254,1.64507042 L315.442254,1.64507042 Z M343.202817,55.1098592 C354.923944,55.1098592 362.738028,48.7352113 362.738028,37.2197183 L362.738028,37.0140845 C362.738028,25.7042254 354.923944,19.1239437 343.202817,19.1239437 L335.183099,19.1239437 L335.183099,55.1098592 L343.202817,55.1098592 Z" id="Shape"></path>
                <polygon id="Path" points="393.377465 1.64507042 413.11831 1.64507042 413.11831 72.3830986 393.377465 72.3830986"></polygon>
                <path d="M423.605634,37.2197183 L423.605634,37.2197183 C423.605634,16.4507042 439.850704,0.205633803 461.853521,0.205633803 C474.397183,0.205633803 483.033803,4.11267606 490.642254,10.4873239 L479.126761,24.2647887 C473.985915,19.9464789 469.050704,17.684507 462.059155,17.684507 C451.777465,17.684507 443.96338,26.3211268 443.96338,37.0140845 L443.96338,37.2197183 C443.96338,48.7352113 451.983099,56.7549296 463.292958,56.7549296 C468.022535,56.7549296 471.723944,55.7267606 474.602817,53.8760563 L474.602817,45.2394366 L460.619718,45.2394366 L460.619718,30.8450704 L493.109859,30.8450704 L493.109859,62.7183099 C485.707042,68.8873239 475.219718,73.6169014 462.264789,73.6169014 C440.056338,74.028169 423.605634,58.8112676 423.605634,37.2197183 Z" id="Path"></path>
                <polygon id="Path" points="504.214085 1.64507042 523.95493 1.64507042 523.95493 72.3830986 504.214085 72.3830986"></polygon>
                <polygon id="Path" points="554.183099 18.9183099 533.002817 18.9183099 533.002817 1.64507042 595.104225 1.64507042 595.104225 18.9183099 573.923944 18.9183099 573.923944 72.5887324 554.388732 72.5887324 554.388732 18.9183099"></polygon>
                <path d="M619.16338,1.23380282 L638.08169,1.23380282 L668.309859,72.5887324 L647.335211,72.5887324 L642.194366,59.8394366 L614.84507,59.8394366 L609.704225,72.5887324 L589.140845,72.5887324 L619.16338,1.23380282 Z M636.230986,44.6225352 L628.416901,24.4704225 L620.397183,44.6225352 L636.230986,44.6225352 Z" id="Shape"></path>
                <polygon id="Path" points="675.095775 1.64507042 694.630986 1.64507042 694.630986 55.315493 728.971831 55.315493 728.971831 72.5887324 675.095775 72.5887324"></polygon>
            </g>
            <g id="Group" transform="translate(209.746479, 0.000000)">
                <polygon id="Path" fill="url(#linearGradient-1)" points="238.740845 38.6591549 117.622535 120.295775 45.4450704 93.9746479"></polygon>
                <polygon id="Path" fill="url(#linearGradient-2)" points="129.343662 137.774648 250.461972 56.1380282 126.670423 214.68169"></polygon>
                <path d="M308.861972,13.7774648 C309.067606,12.9549296 309.273239,12.1323944 309.273239,11.3098592 C309.273239,11.1042254 309.273239,11.1042254 309.273239,10.8985915 C309.273239,9.87042254 309.273239,9.04788732 308.861972,8.01971831 C308.861972,7.81408451 308.656338,7.6084507 308.656338,7.4028169 C308.450704,6.37464789 308.039437,5.55211268 307.422535,4.72957746 C306.805634,3.90704225 306.188732,3.29014085 305.366197,2.67323944 C305.160563,2.46760563 304.95493,2.46760563 304.95493,2.26197183 C304.132394,1.64507042 303.309859,1.23380282 302.487324,0.822535211 C302.28169,0.822535211 302.28169,0.822535211 302.076056,0.616901408 C301.253521,0.411267606 300.430986,0.205633803 299.402817,0 C299.197183,0 299.197183,0 298.991549,0 C297.96338,0 297.140845,0 296.112676,0.411267606 C296.112676,0.411267606 295.907042,0.411267606 295.907042,0.411267606 L9.04788732,83.0760563 C4.72957746,84.3098592 1.64507042,88.2169014 1.43943662,92.7408451 C1.23380282,97.2647887 4.11267606,101.377465 8.22535211,102.816901 L108.369014,139.214085 L104.667606,245.732394 C104.461972,250.256338 107.340845,254.369014 111.453521,255.808451 C112.687324,256.219718 113.921127,256.425352 114.949296,256.425352 C118.033803,256.425352 121.11831,254.985915 123.174648,252.51831 L307.216901,17.0676056 C307.216901,17.0676056 307.216901,16.8619718 307.422535,16.8619718 C308.039437,16.0394366 308.450704,15.2169014 308.861972,14.3943662 C308.861972,14.1887324 308.861972,13.9830986 308.861972,13.7774648 Z M45.4450704,94.1802817 L238.740845,38.6591549 L117.622535,120.295775 L45.4450704,94.1802817 Z M129.343662,137.774648 L250.461972,56.1380282 L126.670423,214.68169 L129.343662,137.774648 Z" id="Shape" fill="#002A00"></path>
            </g>
        </g>
    </g>
</svg>